<svg width="20" height="20" viewBox="0 0 20 20" fill="none" xmlns="http://www.w3.org/2000/svg">
<path fill-rule="evenodd" clip-rule="evenodd" d="M9 3.04232C9.28849 2.82595 9.63938 2.70898 10 2.70898C10.3606 2.70898 10.7115 2.82595 11 3.04232L16.8333 7.41732C17.0403 7.57256 17.2083 7.77387 17.324 8.0053C17.4398 8.23672 17.5 8.49191 17.5 8.75065V15.834C17.5 16.276 17.3244 16.6999 17.0118 17.0125C16.6993 17.3251 16.2754 17.5007 15.8333 17.5007H4.16667C3.72464 17.5007 3.30072 17.3251 2.98816 17.0125C2.67559 16.6999 2.5 16.276 2.5 15.834V8.75065C2.5 8.49191 2.56024 8.23672 2.67595 8.0053C2.79167 7.77387 2.95967 7.57256 3.16667 7.41732L9 3.04232ZM10.8333 8.33398C10.8333 8.11297 10.7455 7.90101 10.5893 7.74473C10.433 7.58845 10.221 7.50065 10 7.50065C9.77899 7.50065 9.56702 7.58845 9.41074 7.74473C9.25446 7.90101 9.16667 8.11297 9.16667 8.33398V13.334C9.16667 13.555 9.25446 13.767 9.41074 13.9232C9.56702 14.0795 9.77899 14.1673 10 14.1673C10.221 14.1673 10.433 14.0795 10.5893 13.9232C10.7455 13.767 10.8333 13.555 10.8333 13.334V8.33398ZM7.5 10.834C7.5 10.613 7.4122 10.401 7.25592 10.2447C7.09964 10.0884 6.88768 10.0007 6.66667 10.0007C6.44565 10.0007 6.23369 10.0884 6.07741 10.2447C5.92113 10.401 5.83333 10.613 5.83333 10.834V13.334C5.83333 13.555 5.92113 13.767 6.07741 13.9232C6.23369 14.0795 6.44565 14.1673 6.66667 14.1673C6.88768 14.1673 7.09964 14.0795 7.25592 13.9232C7.4122 13.767 7.5 13.555 7.5 13.334V10.834ZM14.1667 12.5007C14.1667 12.2796 14.0789 12.0677 13.9226 11.9114C13.7663 11.7551 13.5543 11.6673 13.3333 11.6673C13.1123 11.6673 12.9004 11.7551 12.7441 11.9114C12.5878 12.0677 12.5 12.2796 12.5 12.5007V13.334C12.5 13.555 12.5878 13.767 12.7441 13.9232C12.9004 14.0795 13.1123 14.1673 13.3333 14.1673C13.5543 14.1673 13.7663 14.0795 13.9226 13.9232C14.0789 13.767 14.1667 13.555 14.1667 13.334V12.5007Z" fill="#333333" fill-opacity="0.7"/>
</svg>
