<svg width="20" height="20" viewBox="0 0 20 20" fill="none" xmlns="http://www.w3.org/2000/svg">
<path fill-rule="evenodd" clip-rule="evenodd" d="M9 3.04134C9.28849 2.82497 9.63938 2.70801 10 2.70801C10.3606 2.70801 10.7115 2.82497 11 3.04134L16.8333 7.41634C17.0403 7.57159 17.2083 7.77289 17.324 8.00432C17.4398 8.23574 17.5 8.49093 17.5 8.74968V15.833C17.5 16.275 17.3244 16.699 17.0118 17.0115C16.6993 17.3241 16.2754 17.4997 15.8333 17.4997H4.16667C3.72464 17.4997 3.30072 17.3241 2.98816 17.0115C2.67559 16.699 2.5 16.275 2.5 15.833V8.74968C2.5 8.49093 2.56024 8.23574 2.67595 8.00432C2.79167 7.77289 2.95967 7.57159 3.16667 7.41634L9 3.04134ZM10.8333 8.33301C10.8333 8.11199 10.7455 7.90003 10.5893 7.74375C10.433 7.58747 10.221 7.49968 10 7.49968C9.77899 7.49968 9.56702 7.58747 9.41074 7.74375C9.25446 7.90003 9.16667 8.11199 9.16667 8.33301V13.333C9.16667 13.554 9.25446 13.766 9.41074 13.9223C9.56702 14.0785 9.77899 14.1663 10 14.1663C10.221 14.1663 10.433 14.0785 10.5893 13.9223C10.7455 13.766 10.8333 13.554 10.8333 13.333V8.33301ZM7.5 10.833C7.5 10.612 7.4122 10.4 7.25592 10.2438C7.09964 10.0875 6.88768 9.99968 6.66667 9.99968C6.44565 9.99968 6.23369 10.0875 6.07741 10.2438C5.92113 10.4 5.83333 10.612 5.83333 10.833V13.333C5.83333 13.554 5.92113 13.766 6.07741 13.9223C6.23369 14.0785 6.44565 14.1663 6.66667 14.1663C6.88768 14.1663 7.09964 14.0785 7.25592 13.9223C7.4122 13.766 7.5 13.554 7.5 13.333V10.833ZM14.1667 12.4997C14.1667 12.2787 14.0789 12.0667 13.9226 11.9104C13.7663 11.7541 13.5543 11.6663 13.3333 11.6663C13.1123 11.6663 12.9004 11.7541 12.7441 11.9104C12.5878 12.0667 12.5 12.2787 12.5 12.4997V13.333C12.5 13.554 12.5878 13.766 12.7441 13.9223C12.9004 14.0785 13.1123 14.1663 13.3333 14.1663C13.5543 14.1663 13.7663 14.0785 13.9226 13.9223C14.0789 13.766 14.1667 13.554 14.1667 13.333V12.4997Z" fill="#213B66"/>
</svg>
