<svg width="18" height="18" viewBox="0 0 18 18" fill="none" xmlns="http://www.w3.org/2000/svg">
<path d="M2.175 15.75C1.98375 15.75 1.82355 15.678 1.6944 15.534C1.56525 15.39 1.50045 15.212 1.5 15V7.5C1.5 7.2875 1.5648 7.1095 1.6944 6.966C1.824 6.8225 1.9842 6.7505 2.175 6.75H4.5375C4.72875 6.75 4.88917 6.822 5.01877 6.966C5.14837 7.11 5.21295 7.288 5.2125 7.5V15C5.2125 15.2125 5.1477 15.3907 5.0181 15.5347C4.8885 15.6787 4.7283 15.7505 4.5375 15.75H2.175ZM7.06875 15.75C6.8775 15.75 6.7173 15.678 6.58815 15.534C6.459 15.39 6.3942 15.212 6.39375 15V3C6.39375 2.7875 6.45855 2.6095 6.58815 2.466C6.71775 2.3225 6.87795 2.2505 7.06875 2.25H9.43125C9.6225 2.25 9.78292 2.322 9.91252 2.466C10.0421 2.61 10.1067 2.788 10.1062 3V15C10.1062 15.2125 10.0414 15.3907 9.91185 15.5347C9.78225 15.6787 9.62205 15.7505 9.43125 15.75H7.06875ZM11.9625 15.75C11.7712 15.75 11.611 15.678 11.4819 15.534C11.3527 15.39 11.2879 15.212 11.2875 15V9C11.2875 8.7875 11.3523 8.6095 11.4819 8.466C11.6115 8.3225 11.7717 8.2505 11.9625 8.25H14.325C14.5162 8.25 14.6767 8.322 14.8063 8.466C14.9359 8.61 15.0004 8.788 15 9V15C15 15.2125 14.9352 15.3907 14.8056 15.5347C14.676 15.6787 14.5158 15.7505 14.325 15.75H11.9625Z" fill="#333333" fill-opacity="0.7"/>
</svg>
