<svg width="24" height="24" viewBox="0 0 24 24" fill="none" xmlns="http://www.w3.org/2000/svg">
<path d="M8 22C6.9 22 5.95833 21.6083 5.175 20.825C4.39167 20.0417 4 19.1 4 18V8C4 6.9 4.39167 5.95834 5.175 5.175C5.95833 4.39167 6.9 4 8 4H9V3C9 2.71667 9.096 2.47934 9.288 2.288C9.48 2.09667 9.71733 2.00067 10 2C10.2827 1.99934 10.5203 2.09534 10.713 2.288C10.9057 2.48067 11.0013 2.718 11 3V4H13V3C13 2.71667 13.096 2.47934 13.288 2.288C13.48 2.09667 13.7173 2.00067 14 2C14.2827 1.99934 14.5203 2.09534 14.713 2.288C14.9057 2.48067 15.0013 2.718 15 3V4H16C17.1 4 18.0417 4.39167 18.825 5.175C19.6083 5.95834 20 6.9 20 8V18C20 19.1 19.6083 20.0417 18.825 20.825C18.0417 21.6083 17.1 22 16 22H8ZM9 10H15C15.2833 10 15.521 9.904 15.713 9.712C15.905 9.52 16.0007 9.28267 16 9C15.9993 8.71734 15.9033 8.48 15.712 8.288C15.5207 8.096 15.2833 8 15 8H9C8.71667 8 8.47933 8.096 8.288 8.288C8.09667 8.48 8.00067 8.71734 8 9C7.99933 9.28267 8.09533 9.52034 8.288 9.713C8.48067 9.90567 8.718 10.0013 9 10ZM12 18C12.7 18 13.2917 17.7627 13.775 17.288C14.2583 16.8133 14.5 16.234 14.5 15.55C14.5 15.2667 14.4667 15.025 14.4 14.825C14.3333 14.625 14.2083 14.3917 14.025 14.125L12.575 12.425C12.425 12.2417 12.2333 12.15 12 12.15C11.7667 12.15 11.575 12.2417 11.425 12.425L9.975 14.15C9.79167 14.4167 9.66667 14.646 9.6 14.838C9.53333 15.03 9.5 15.2673 9.5 15.55C9.5 16.2333 9.74167 16.8127 10.225 17.288C10.7083 17.7633 11.3 18.0007 12 18Z" fill="#006045"/>
</svg>
