<svg width="20" height="20" viewBox="0 0 20 20" fill="none" xmlns="http://www.w3.org/2000/svg">
<path d="M4.58301 7.5C5.27336 7.5 5.83301 6.94036 5.83301 6.25C5.83301 5.55964 5.27336 5 4.58301 5C3.89265 5 3.33301 5.55964 3.33301 6.25C3.33301 6.94036 3.89265 7.5 4.58301 7.5Z" fill="#213B66"/>
<path fill-rule="evenodd" clip-rule="evenodd" d="M6.66699 5.41667C6.66699 5.30616 6.71089 5.20018 6.78903 5.12204C6.86717 5.0439 6.97315 5 7.08366 5H16.2503C16.3608 5 16.4668 5.0439 16.545 5.12204C16.6231 5.20018 16.667 5.30616 16.667 5.41667C16.667 5.52717 16.6231 5.63315 16.545 5.71129C16.4668 5.78943 16.3608 5.83333 16.2503 5.83333H7.08366C6.97315 5.83333 6.86717 5.78943 6.78903 5.71129C6.71089 5.63315 6.66699 5.52717 6.66699 5.41667ZM6.66699 7.08333C6.66699 6.97283 6.71089 6.86685 6.78903 6.78871C6.86717 6.71056 6.97315 6.66667 7.08366 6.66667H12.0837C12.1942 6.66667 12.3001 6.71056 12.3783 6.78871C12.4564 6.86685 12.5003 6.97283 12.5003 7.08333C12.5003 7.19384 12.4564 7.29982 12.3783 7.37796C12.3001 7.4561 12.1942 7.5 12.0837 7.5H7.08366C6.97315 7.5 6.86717 7.4561 6.78903 7.37796C6.71089 7.29982 6.66699 7.19384 6.66699 7.08333Z" fill="#213B66"/>
<path d="M4.58301 11.25C5.27336 11.25 5.83301 10.6904 5.83301 10C5.83301 9.30964 5.27336 8.75 4.58301 8.75C3.89265 8.75 3.33301 9.30964 3.33301 10C3.33301 10.6904 3.89265 11.25 4.58301 11.25Z" fill="#213B66"/>
<path fill-rule="evenodd" clip-rule="evenodd" d="M6.66699 9.16667C6.66699 9.05616 6.71089 8.95018 6.78903 8.87204C6.86717 8.7939 6.97315 8.75 7.08366 8.75H13.7503C13.8608 8.75 13.9668 8.7939 14.045 8.87204C14.1231 8.95018 14.167 9.05616 14.167 9.16667C14.167 9.27717 14.1231 9.38315 14.045 9.46129C13.9668 9.53943 13.8608 9.58333 13.7503 9.58333H7.08366C6.97315 9.58333 6.86717 9.53943 6.78903 9.46129C6.71089 9.38315 6.66699 9.27717 6.66699 9.16667ZM6.66699 10.8333C6.66699 10.7228 6.71089 10.6168 6.78903 10.5387C6.86717 10.4606 6.97315 10.4167 7.08366 10.4167H12.917C13.0275 10.4167 13.1335 10.4606 13.2116 10.5387C13.2898 10.6168 13.3337 10.7228 13.3337 10.8333C13.3337 10.9438 13.2898 11.0498 13.2116 11.128C13.1335 11.2061 13.0275 11.25 12.917 11.25H7.08366C6.97315 11.25 6.86717 11.2061 6.78903 11.128C6.71089 11.0498 6.66699 10.9438 6.66699 10.8333Z" fill="#213B66"/>
<path d="M4.58301 15C5.27336 15 5.83301 14.4404 5.83301 13.75C5.83301 13.0596 5.27336 12.5 4.58301 12.5C3.89265 12.5 3.33301 13.0596 3.33301 13.75C3.33301 14.4404 3.89265 15 4.58301 15Z" fill="#213B66"/>
<path fill-rule="evenodd" clip-rule="evenodd" d="M6.66699 12.9167C6.66699 12.8062 6.71089 12.7002 6.78903 12.622C6.86717 12.5439 6.97315 12.5 7.08366 12.5H15.0003C15.1108 12.5 15.2168 12.5439 15.295 12.622C15.3731 12.7002 15.417 12.8062 15.417 12.9167C15.417 13.0272 15.3731 13.1332 15.295 13.2113C15.2168 13.2894 15.1108 13.3333 15.0003 13.3333H7.08366C6.97315 13.3333 6.86717 13.2894 6.78903 13.2113C6.71089 13.1332 6.66699 13.0272 6.66699 12.9167ZM6.66699 14.5833C6.66699 14.4728 6.71089 14.3668 6.78903 14.2887C6.86717 14.2106 6.97315 14.1667 7.08366 14.1667H10.417C10.5275 14.1667 10.6335 14.2106 10.7116 14.2887C10.7898 14.3668 10.8337 14.4728 10.8337 14.5833C10.8337 14.6938 10.7898 14.7998 10.7116 14.878C10.6335 14.9561 10.5275 15 10.417 15H7.08366C6.97315 15 6.86717 14.9561 6.78903 14.878C6.71089 14.7998 6.66699 14.6938 6.66699 14.5833Z" fill="#213B66"/>
</svg>
