<svg width="20" height="20" viewBox="0 0 20 20" fill="none" xmlns="http://www.w3.org/2000/svg">
<path d="M20 12.1663C20 12.6663 19 12.9997 17.8333 13.1663C17.0833 11.7497 15.5833 10.6663 13.8333 9.91634C14 9.66634 14.1667 9.49967 14.3333 9.24967H15C17.5833 9.16634 20 10.7497 20 12.1663ZM5.66667 9.16634H5C2.41667 9.16634 0 10.7497 0 12.1663C0 12.6663 1 12.9997 2.16667 13.1663C2.91667 11.7497 4.41667 10.6663 6.16667 9.91634L5.66667 9.16634ZM10 9.99967C11.8333 9.99967 13.3333 8.49967 13.3333 6.66634C13.3333 4.83301 11.8333 3.33301 10 3.33301C8.16667 3.33301 6.66667 4.83301 6.66667 6.66634C6.66667 8.49967 8.16667 9.99967 10 9.99967ZM10 10.833C6.58333 10.833 3.33333 12.9997 3.33333 14.9997C3.33333 16.6663 10 16.6663 10 16.6663C10 16.6663 16.6667 16.6663 16.6667 14.9997C16.6667 12.9997 13.4167 10.833 10 10.833ZM14.75 8.33301H15C16.4167 8.33301 17.5 7.24967 17.5 5.83301C17.5 4.41634 16.4167 3.33301 15 3.33301C14.5833 3.33301 14.25 3.41634 13.9167 3.58301C14.5833 4.41634 15 5.49967 15 6.66634C15 7.24967 14.9167 7.83301 14.75 8.33301ZM5 8.33301H5.25C5.08333 7.83301 5 7.24967 5 6.66634C5 5.49967 5.41667 4.41634 6.08333 3.58301C5.75 3.41634 5.41667 3.33301 5 3.33301C3.58333 3.33301 2.5 4.41634 2.5 5.83301C2.5 7.24967 3.58333 8.33301 5 8.33301Z" fill="#333333" fill-opacity="0.7"/>
</svg>
